<svg width="262" height="155" viewBox="0 0 262 155" fill="none" xmlns="http://www.w3.org/2000/svg">
<circle cx="143" cy="105" r="50" fill="#FADB8C"/>
<path d="M115.094 102.717L114.687 102.514" stroke="#6E5858" stroke-width="10" stroke-linecap="round"/>
<path d="M169.664 93.5542L170.072 93.7578" stroke="#6E5858" stroke-width="10" stroke-linecap="round"/>
<path d="M132.952 121.438C134.445 122.327 135.937 123.215 137.666 124.401C139.395 125.588 141.314 127.045 142.569 127.938C144.973 129.648 145.801 129.695 148.164 129.625C149.254 129.592 150.499 128.125 152.751 125.107C154.15 123.049 156.069 119.922 157.236 117.848C158.402 115.775 158.758 114.851 159.124 113.899" stroke="#6E5858" stroke-width="7" stroke-linecap="round"/>
<path d="M158.378 61.6525C159.333 61.2109 164.226 59.137 166.846 57.6796C167.731 57.1875 171.944 54.0992 177.851 49.493C180.561 47.3801 181.785 46.0486 184.006 44.2723C190.099 39.4005 192.784 35.2082 194.683 32.9313C199.362 27.3202 204.456 23.4512 206.096 22.6283C206.81 22.2702 207.806 22.18 208.735 22.364C210.648 22.743 209.077 26.9301 206.929 30.8617C205.625 33.2491 204.251 34.6596 202.984 36.1872C201.892 37.5044 201.049 38.3816 201.083 38.7551C201.266 40.733 205.192 35.0565 207.47 33.7051C209.484 32.5103 210.928 31.1048 212.489 29.7311C213.979 28.4201 215.825 25.989 218.618 22.3406C220.459 19.9362 223.189 17.1356 225.903 13.6812C227.21 12.0179 228.621 11.1857 230.032 10.2157C231.91 8.92423 233.447 7.91198 235.458 7.42582C235.908 7.317 236.275 7.16713 236.759 7.09131C237.243 7.01549 237.832 7.01549 238.135 7.71462C239.719 11.3655 237.105 13.4738 236.211 14.8899C235.251 16.4128 234.281 17.7868 233.312 19.0535C232.408 20.2358 231.235 21.4307 229.857 23.0286C228.73 24.3348 227.738 25.9623 226.475 27.675C226.19 28.0612 225.954 28.344 226.061 28.3852C227.531 28.9518 230.093 25.8329 234.261 23.0453C236.531 21.5273 237.689 20.4004 239.174 18.9163C241.609 16.4831 242.894 15.2757 245.638 12.2305C247.403 10.2714 249.361 8.65683 251.511 6.76461C254.576 4.06663 255.753 3.0058 257.35 2.37134C257.747 2.21392 258.13 2.18513 258.503 2.14722C258.877 2.1093 259.245 2.1093 259.434 2.69805C260.597 6.30863 258.215 9.01364 257.176 10.8345C255.048 14.5682 253.759 16.0785 252.419 17.6028C251.038 19.1732 249.004 20.6859 245.291 23.6552C243.132 25.3817 241.641 26.5599 240.265 27.4174C238.653 28.422 236.739 30.1236 235.172 31.3568C233.993 32.285 232.943 33.4732 231.347 34.9595C229.026 37.1197 226.704 38.1563 224.841 39.4587C223.083 40.6884 220.829 41.7245 218.747 42.8785C217.331 43.663 215.995 44.2534 212.917 46.1088C209.979 47.8804 207.596 48.6422 204.035 50.6426C201.938 51.8202 199.501 53.0221 197.078 54.0669C193.973 55.4058 189.385 57.1165 187.416 57.7465C183.316 59.0581 179.288 60.3055 176.859 60.9076C174.035 61.6078 171.848 62.4642 168.352 63.5447C166.866 63.8067 165.153 64.1769 163.371 64.623C162.62 64.7746 162.178 64.7746 161.723 64.7746" stroke="#6E5858" stroke-width="3" stroke-linecap="round"/>
<path d="M110.218 70.5956C109.207 70.2449 104.042 68.6368 101.243 67.4285C100.298 67.0206 95.7275 64.3318 89.293 60.2853C86.3416 58.4293 84.9726 57.2133 82.5491 55.6475C75.902 51.3527 72.7788 47.4122 70.6353 45.3143C65.353 40.1442 59.8145 36.7579 58.071 36.0911C57.3122 35.8008 56.2926 35.8059 55.3667 36.0791C53.4596 36.6417 55.4502 40.6839 58.0024 44.4149C59.5522 46.6804 61.0811 47.9611 62.5118 49.3694C63.7454 50.5837 64.6849 51.3812 64.685 51.7585C64.6859 53.7565 60.1628 48.4487 57.7217 47.3137C55.5634 46.3102 53.9645 45.0412 52.2494 43.8152C50.6126 42.6452 48.5079 40.3878 45.3267 37.0022C43.2301 34.771 40.1934 32.2282 37.1109 29.0293C35.6267 27.489 34.1144 26.7909 32.5903 25.9547C30.5613 24.8414 28.9042 23.9751 26.8165 23.6809C26.3492 23.615 25.962 23.5001 25.4634 23.4706C24.9647 23.441 24.3668 23.4974 24.1248 24.2264C22.861 28.0337 25.7149 29.8944 26.7557 31.2268C27.875 32.6596 28.9895 33.9425 30.0931 35.118C31.1233 36.2153 32.4273 37.2994 33.9779 38.7674C35.2454 39.9674 36.4065 41.5019 37.8512 43.0958C38.177 43.4553 38.4432 43.7158 38.3384 43.7674C36.8991 44.4754 34.0026 41.5979 29.5064 39.2059C27.0579 37.9033 25.7755 36.8859 24.127 35.5421C21.4242 33.3389 20.0055 32.253 16.9311 29.4667C14.9532 27.6742 12.8125 26.245 10.4505 24.5562C7.08271 22.1483 5.78784 21.1988 4.10516 20.7165C3.68764 20.5969 3.29601 20.6047 2.91307 20.6025C2.53012 20.6003 2.15643 20.6356 2.01951 21.2432C1.17982 24.9698 3.85468 27.4501 5.0809 29.1739C7.59527 32.7086 9.04692 34.0974 10.552 35.4953C12.1026 36.9354 14.3106 38.2553 18.362 40.8729C20.7175 42.3948 22.3438 43.4317 23.8222 44.1585C25.5543 45.0101 27.6584 46.5306 29.3659 47.6153C30.6511 48.4318 31.8295 49.521 33.5914 50.8563C36.1522 52.797 38.6087 53.6126 40.6228 54.7383C42.5245 55.8012 44.9112 56.6228 47.1356 57.5788C48.6475 58.2287 50.0602 58.6919 53.3609 60.255C56.5124 61.7474 59.004 62.2821 62.8099 63.9439C65.0505 64.9223 67.639 65.8923 70.1984 66.7064C73.4783 67.7497 78.299 69.0233 80.3583 69.4655C84.6458 70.3862 88.8554 71.2493 91.3786 71.6197C94.3128 72.0503 96.6147 72.6984 100.267 73.4455C101.801 73.5655 103.576 73.7722 105.427 74.0481C106.205 74.128 106.653 74.0857 107.115 74.0421" stroke="#6E5858" stroke-width="3" stroke-linecap="round"/>
</svg>
