<svg width="100" height="100" viewBox="0 0 100 100" fill="none" xmlns="http://www.w3.org/2000/svg">
<circle cx="50" cy="50" r="50" fill="#FADB8C"/>
<path d="M41.8691 52C41.6531 52.2877 41.2182 52.9639 41.0722 53.4477C40.8828 54.075 41.095 54.9686 41.3726 55.5252C41.614 56.0092 42.1561 56.4181 42.6645 56.638C43.1173 56.8339 43.965 56.7833 44.6213 56.6511C45.1717 56.5401 45.6841 56.1325 46.2397 55.5897C46.6316 55.2067 46.7481 54.6598 46.9416 54.1761C46.9901 54.0547 47.038 53.9351 47.0865 53.8137C47.1351 53.6923 47.1829 53.5727 47.2076 53.7264C47.3934 54.885 47.5685 55.4281 47.9073 55.972C48.2376 56.5023 48.6803 56.7573 49.1028 57.1925C49.4744 57.5752 50.0805 57.6762 50.9252 57.7136C51.4745 57.7378 51.8923 57.2921 52.3522 56.9779C52.8283 56.6526 52.8606 55.9165 53.0777 55.4081C53.1505 55.1672 53.1751 54.446 53.1393 53.4923C53.1034 53.1364 53.0316 53.0407 52.8128 52.8697" stroke="#6E5858" stroke-width="3" stroke-linecap="round"/>
<path d="M25.4072 39.2036L25 39" stroke="#6E5858" stroke-width="10" stroke-linecap="round"/>
<path d="M74 47L74.4072 47.2036" stroke="#6E5858" stroke-width="10" stroke-linecap="round"/>
</svg>
