<svg width="100" height="100" viewBox="0 0 100 100" fill="none" xmlns="http://www.w3.org/2000/svg">
<circle cx="50" cy="50" r="50" fill="#FADB8C"/>
<path d="M22.094 47.7172L21.6867 47.5135" stroke="#6E5858" stroke-width="10" stroke-linecap="round"/>
<path d="M76.6644 38.5542L77.0717 38.7578" stroke="#6E5858" stroke-width="10" stroke-linecap="round"/>
<path d="M43.9337 56.2188C45.651 55.6812 47.3684 55.1436 49.4925 54.5381C51.6167 53.9327 54.0956 53.2756 55.395 52.9744C56.6944 52.6733 56.7392 52.7479 56.7623 53.0104C56.8246 53.7185 56.8152 54.272 56.868 54.4451C56.9153 54.6007 56.9211 55.5613 56.9137 56.941C56.9096 57.6972 56.8161 58.0271 56.703 58.4043C56.4983 59.0869 56.198 59.4154 55.9118 59.8523C55.5319 60.4322 54.7662 60.8635 54.4635 61.0902C54.1822 61.3008 53.6965 61.4518 53.1369 61.6708C52.6361 61.8668 52.0674 62.0853 50.0129 62.1394C49.3002 62.1581 48.9431 61.8165 48.3632 61.4617C47.9846 61.2301 47.6915 61.0318 47.3064 60.7977C46.9671 60.5914 46.6651 60.2173 46.1606 59.6903C45.7575 59.2694 45.5637 58.8145 45.3225 58.4979C44.9998 58.0745 44.8397 57.8189 44.696 57.4646C44.6134 57.3211 44.5225 57.1999 44.4396 57.0646C44.4016 56.989 44.3718 56.8994 44.341 56.8071" stroke="#6E5858" stroke-width="3" stroke-linecap="round"/>
</svg>
