<svg width="100" height="100" viewBox="0 0 100 100" fill="none" xmlns="http://www.w3.org/2000/svg">
<circle cx="50" cy="50" r="50" fill="#FADB8C"/>
<path d="M25.4072 39.2036L25 39" stroke="#6E5858" stroke-width="10" stroke-linecap="round"/>
<path d="M74 47L74.4072 47.2036" stroke="#6E5858" stroke-width="10" stroke-linecap="round"/>
<path d="M39.3541 53.4152C40.4294 53.5681 41.5048 53.721 43.8842 53.9254C46.2636 54.1298 49.9145 54.3811 51.8385 54.5065C53.7625 54.6318 53.849 54.6238 54.0177 54.6378C54.7877 54.7018 55.0209 54.7113 55.1229 54.7041C55.1821 54.7 55.2571 54.7132 55.1326 54.831C55.0081 54.9488 54.682 55.1755 54.4664 55.3337C54.2508 55.4919 54.1557 55.5748 53.696 55.9252C53.2364 56.2756 52.4151 56.891 51.9555 57.2292C51.4959 57.5673 51.4228 57.6097 51.0737 57.8372C50.7245 58.0648 50.1015 58.4763 49.7653 58.7056C49.3921 58.9603 49.313 59.0298 49.0341 59.197C48.401 59.5764 47.9695 59.8837 47.8751 59.9336C47.4628 60.1516 47.0442 60.5072 46.9097 60.5832C46.6149 60.7499 46.253 61.011 46.105 61.0747C46.0449 61.1006 45.7897 60.6904 45.3613 60.0281C44.9589 59.4059 44.7865 59.015 44.5943 58.7406C44.4353 58.5137 44.1678 58.0975 43.9707 57.8104C43.5186 57.1517 43.3046 56.9697 42.924 56.5695C42.6744 56.3071 42.2134 55.8341 41.9605 55.5775C41.5489 55.16 41.2195 54.905 40.9724 54.6826C40.8144 54.5404 40.6389 54.431 40.4878 54.291C40.3756 54.1871 40.249 54.1153 40.1191 54.0086C40.014 53.8755 39.8568 53.741 39.7305 53.6557C39.6972 53.6357 39.6637 53.6123 39.6292 53.5883" stroke="#6E5858" stroke-width="3" stroke-linecap="round"/>
</svg>
